<svg width="236" height="64" viewBox="0 0 236 64" fill="none" xmlns="http://www.w3.org/2000/svg">
<path d="M75.3003 30.1207C75.3003 27.7145 75.8307 25.5653 76.8916 23.6731C77.9755 21.7575 79.44 20.2741 81.2849 19.2228C83.153 18.1482 85.2401 17.6109 87.5463 17.6109C90.2446 17.6109 92.6085 18.3118 94.638 19.7134C96.6675 21.1151 98.0858 23.054 98.893 25.5303H93.3234C92.7699 24.3622 91.9858 23.4862 90.9711 22.9022C89.9794 22.3182 88.8263 22.0261 87.5117 22.0261C86.105 22.0261 84.8481 22.3649 83.7411 23.0423C82.6571 23.6964 81.8038 24.6309 81.1812 25.8457C80.5815 27.0604 80.2817 28.4854 80.2817 30.1207C80.2817 31.7326 80.5815 33.1576 81.1812 34.3957C81.8038 35.6105 82.6571 36.5566 83.7411 37.2341C84.8481 37.8882 86.105 38.2153 87.5117 38.2153C88.8263 38.2153 89.9794 37.9232 90.9711 37.3392C91.9858 36.7318 92.7699 35.8441 93.3234 34.6761H98.893C98.0858 37.1757 96.6675 39.1263 94.638 40.528C92.6316 41.9063 90.2677 42.5954 87.5463 42.5954C85.2401 42.5954 83.153 42.0698 81.2849 41.0186C79.44 39.944 77.9755 38.4605 76.8916 36.5683C75.8307 34.6761 75.3003 32.5269 75.3003 30.1207Z" fill="white"/>
<path d="M101.784 32.6086C101.784 30.6463 102.165 28.9059 102.926 27.3875C103.71 25.869 104.759 24.701 106.074 23.8833C107.411 23.0657 108.899 22.6569 110.536 22.6569C111.966 22.6569 113.212 22.9489 114.272 23.5329C115.356 24.1169 116.221 24.8528 116.867 25.7405V22.9723H121.745V42.3852H116.867V39.5468C116.244 40.4579 115.379 41.2171 114.272 41.8245C113.188 42.4085 111.932 42.7005 110.502 42.7005C108.887 42.7005 107.411 42.2801 106.074 41.4391C104.759 40.5981 103.71 39.4183 102.926 37.8999C102.165 36.3581 101.784 34.5943 101.784 32.6086ZM116.867 32.6787C116.867 31.4873 116.636 30.4711 116.175 29.6301C115.714 28.7658 115.091 28.1117 114.307 27.6678C113.523 27.2006 112.681 26.967 111.782 26.967C110.882 26.967 110.052 27.1889 109.291 27.6328C108.53 28.0766 107.907 28.7307 107.423 29.5951C106.962 30.4361 106.731 31.4406 106.731 32.6086C106.731 33.7767 106.962 34.8046 107.423 35.6923C107.907 36.5566 108.53 37.2224 109.291 37.6896C110.075 38.1569 110.905 38.3905 111.782 38.3905C112.681 38.3905 113.523 38.1685 114.307 37.7247C115.091 37.2575 115.714 36.6034 116.175 35.7624C116.636 34.898 116.867 33.8701 116.867 32.6787Z" fill="white"/>
<path d="M137.095 22.6919C139.378 22.6919 141.223 23.4278 142.63 24.8995C144.037 26.3479 144.74 28.3803 144.74 30.9967V42.3852H139.897V31.6625C139.897 30.1207 139.516 28.941 138.755 28.1233C137.994 27.2823 136.956 26.8619 135.642 26.8619C134.304 26.8619 133.243 27.2823 132.459 28.1233C131.698 28.941 131.318 30.1207 131.318 31.6625V42.3852H126.475V22.9723H131.318V25.3901C131.963 24.5491 132.782 23.895 133.774 23.4278C134.789 22.9372 135.896 22.6919 137.095 22.6919Z" fill="white"/>
<path d="M148.1 32.6086C148.1 30.6463 148.481 28.9059 149.242 27.3875C150.026 25.869 151.087 24.701 152.424 23.8833C153.762 23.0657 155.249 22.6569 156.887 22.6569C158.132 22.6569 159.32 22.9372 160.45 23.4979C161.58 24.0352 162.479 24.7594 163.148 25.6704V16.4546H168.06V42.3852H163.148V39.5118C162.549 40.4696 161.707 41.2405 160.623 41.8245C159.539 42.4085 158.282 42.7005 156.852 42.7005C155.238 42.7005 153.762 42.2801 152.424 41.4391C151.087 40.5981 150.026 39.4183 149.242 37.8999C148.481 36.3581 148.1 34.5943 148.1 32.6086ZM163.183 32.6787C163.183 31.4873 162.952 30.4711 162.491 29.6301C162.03 28.7658 161.407 28.1117 160.623 27.6678C159.839 27.2006 158.997 26.967 158.098 26.967C157.198 26.967 156.368 27.1889 155.607 27.6328C154.846 28.0766 154.223 28.7307 153.739 29.5951C153.278 30.4361 153.047 31.4406 153.047 32.6086C153.047 33.7767 153.278 34.8046 153.739 35.6923C154.223 36.5566 154.846 37.2224 155.607 37.6896C156.391 38.1569 157.221 38.3905 158.098 38.3905C158.997 38.3905 159.839 38.1685 160.623 37.7247C161.407 37.2575 162.03 36.6034 162.491 35.7624C162.952 34.898 163.183 33.8701 163.183 32.6787Z" fill="white"/>
<path d="M177.634 16.4546V42.3852H172.791V16.4546H177.634Z" fill="white"/>
<path d="M200.234 32.2582C200.234 32.9591 200.188 33.5898 200.096 34.1505H186.086C186.201 35.5521 186.685 36.6501 187.538 37.4443C188.392 38.2386 189.441 38.6358 190.686 38.6358C192.485 38.6358 193.765 37.8532 194.526 36.288H199.75C199.196 38.1569 198.136 39.6987 196.567 40.9134C194.999 42.1048 193.073 42.7005 190.79 42.7005C188.945 42.7005 187.285 42.2917 185.809 41.4741C184.356 40.6331 183.214 39.4534 182.384 37.9349C181.577 36.4165 181.173 34.6644 181.173 32.6787C181.173 30.6697 181.577 28.9059 182.384 27.3875C183.191 25.869 184.321 24.701 185.774 23.8833C187.227 23.0657 188.899 22.6569 190.79 22.6569C192.612 22.6569 194.238 23.054 195.668 23.8483C197.121 24.6426 198.239 25.7756 199.023 27.2473C199.831 28.6957 200.234 30.366 200.234 32.2582ZM195.218 30.8566C195.195 29.5951 194.745 28.5906 193.869 27.843C192.993 27.0721 191.92 26.6866 190.652 26.6866C189.453 26.6866 188.438 27.0604 187.608 27.808C186.8 28.5322 186.305 29.5484 186.12 30.8566H195.218Z" fill="white"/>
<path d="M202.524 32.6086C202.524 30.6463 202.904 28.9059 203.665 27.3875C204.45 25.869 205.499 24.701 206.813 23.8833C208.151 23.0657 209.639 22.6569 211.276 22.6569C212.706 22.6569 213.951 22.9489 215.012 23.5329C216.096 24.1169 216.961 24.8528 217.607 25.7405V22.9723H222.484V42.3852H217.607V39.5468C216.984 40.4579 216.119 41.2171 215.012 41.8245C213.928 42.4085 212.671 42.7005 211.241 42.7005C209.627 42.7005 208.151 42.2801 206.813 41.4391C205.499 40.5981 204.45 39.4183 203.665 37.8999C202.904 36.3581 202.524 34.5943 202.524 32.6086ZM217.607 32.6787C217.607 31.4873 217.376 30.4711 216.915 29.6301C216.453 28.7658 215.831 28.1117 215.047 27.6678C214.263 27.2006 213.421 26.967 212.521 26.967C211.622 26.967 210.792 27.1889 210.031 27.6328C209.27 28.0766 208.647 28.7307 208.163 29.5951C207.701 30.4361 207.471 31.4406 207.471 32.6086C207.471 33.7767 207.701 34.8046 208.163 35.6923C208.647 36.5566 209.27 37.2224 210.031 37.6896C210.815 38.1569 211.645 38.3905 212.521 38.3905C213.421 38.3905 214.263 38.1685 215.047 37.7247C215.831 37.2575 216.453 36.6034 216.915 35.7624C217.376 34.898 217.607 33.8701 217.607 32.6787Z" fill="white"/>
<path d="M236.001 27.002H232.645V42.3852H227.733V27.002H225.554V22.9723H227.733V21.9911C227.733 19.6083 228.402 17.8562 229.74 16.7349C231.077 15.6136 233.095 15.088 235.793 15.158V19.2929C234.617 19.2696 233.799 19.4681 233.337 19.8886C232.876 20.3091 232.645 21.0683 232.645 22.1663V22.9723H236.001V27.002Z" fill="white"/>
<g clip-path="url(#clip0_1140_402)">
<mask id="mask0_1140_402" style="mask-type:alpha" maskUnits="userSpaceOnUse" x="0" y="0" width="64" height="64">
<circle cx="31.681" cy="31.681" r="31.681" fill="#F578A5"/>
</mask>
<g mask="url(#mask0_1140_402)">
<circle cx="31.681" cy="31.681" r="31.681" fill="white"/>
<path d="M17.1082 62.9028V63.5959H17.8013H47.1865H47.8796V62.9028V50.5728C47.8796 49.4403 46.982 48.5116 45.8501 48.473L19.2809 47.5672C18.0931 47.5267 17.1082 48.4786 17.1082 49.6671V62.9028Z" fill="#272727" stroke="#272727" stroke-width="1.38604"/>
<g clip-path="url(#clip1_1140_402)">
<path d="M23.2124 22.2461C29.6688 13.2691 26.8916 5.96215 26.8994 5.95348C26.7625 5.58755 26.9482 5.18001 27.3141 5.04312C27.4987 4.97407 27.7037 4.9852 27.8798 5.07374C39.5324 10.6496 44.5468 17.8476 45.507 24.3553C45.8887 26.8837 45.6501 29.467 44.8117 31.8828C44.0434 34.1118 42.7637 36.13 41.0751 37.7753C37.8269 40.9123 33.2876 42.3583 28.8075 40.8923C27.6615 40.5184 26.5801 39.9699 25.6015 39.266C23.6383 37.8571 22.1492 35.8853 21.3312 33.6115C20.4632 31.1797 20.4356 28.5271 21.2528 26.0778C21.7042 24.7069 22.3652 23.4143 23.2124 22.2461Z" fill="#272727"/>
<path d="M27.0411 6.18501C26.7573 5.91656 26.7448 5.46884 27.0133 5.18507C27.2817 4.9013 27.7294 4.88878 28.0132 5.15723C28.0341 5.17698 28.0537 5.19797 28.072 5.22013C28.098 5.24353 33.724 11.1408 34.5278 22.5388L34.5361 22.6457C34.7097 25.3097 34.6239 27.9843 34.2804 30.6318L38.1273 27.6836C38.4496 27.4627 38.8899 27.5448 39.1108 27.867C39.3107 28.1587 39.2646 28.5532 39.0027 28.7908L33.9752 32.632C32.8496 39.249 28.8819 48.6102 34.1344 54.4692C34.3874 54.767 34.3511 55.2134 34.0534 55.4663C33.77 55.7071 33.3486 55.6874 33.089 55.4212C26.7904 48.4006 31.3736 39.7034 32.6279 32.1824L32.6444 32.077C33.1544 29.0841 33.3292 26.0436 33.1655 23.012L28.6437 19.6989C28.3212 19.4784 28.2384 19.0382 28.4589 18.7157C28.6794 18.3932 29.1195 18.3104 29.4421 18.5309C29.4554 18.54 29.4685 18.5496 29.4812 18.5597L32.9848 21.1391C31.8919 11.2587 27.0616 6.2087 27.0411 6.18501Z" fill="white"/>
</g>
</g>
</g>
<defs>
<clipPath id="clip0_1140_402">
<rect width="63.362" height="63.362" fill="white"/>
</clipPath>
<clipPath id="clip1_1140_402">
<rect width="38.8832" height="38.8832" fill="white" transform="translate(3.73486 31.0383) rotate(-48)"/>
</clipPath>
</defs>
</svg>
